<svg width="800" height="906" viewBox="0 0 800 906" fill="none" xmlns="http://www.w3.org/2000/svg">
<path d="M645.767 623.461L645.767 623.48V623.5C645.767 735.7 558.471 846.033 412.667 846.033C331.531 846.033 273.388 817.616 235.201 773.71C196.578 729.303 176.233 666.546 176.233 594.7C176.233 513.155 207.003 409.196 255.502 313.81C299.019 228.22 355.049 152.992 411.752 108.375C409.765 182.477 431.445 255.537 473.988 316.771C487.376 337.128 501.907 355.701 517.314 375.393C522.649 382.211 528.088 389.164 533.621 396.37C540.921 405.899 547.647 414.298 554.056 422.302C576.124 449.861 594.428 472.72 619.421 520.77L619.491 520.905L619.563 521.04L620.063 521.973L620.094 522.03L620.125 522.088C637.007 553.206 645.822 588.058 645.767 623.461Z" fill="#FBF0DF" stroke="black" stroke-width="50"/>
<path d="M659.267 593.48L659.267 593.49V593.5C659.267 712.133 566.836 828.533 413.667 828.533C329.357 828.533 267.606 798.866 226.769 751.913C185.714 704.71 164.733 638.79 164.733 564.7C164.733 480.511 196.335 374.565 245.359 278.144C294.413 181.665 359.815 96.8778 425.68 53.6352C425.791 53.5684 425.919 53.5321 426.049 53.5305C426.186 53.5288 426.321 53.5657 426.439 53.6372C426.556 53.7087 426.652 53.8118 426.713 53.9346C426.773 54.0532 426.799 54.1855 426.789 54.3176C418.833 134.045 439.599 213.992 485.344 279.77C498.448 299.71 512.558 317.746 527.898 337.353C533.292 344.248 538.839 351.337 544.547 358.772C551.632 368.021 558.238 376.268 564.588 384.196C586.814 411.946 605.916 435.794 631.51 485.001L631.546 485.069L631.582 485.137L632.082 486.07L632.097 486.099L632.113 486.127C649.99 519.081 659.325 555.99 659.267 593.48Z" fill="#FBF0DF" stroke="black" stroke-width="25"/>
<path d="M314.5 226.5C337.5 192 344.5 146.5 344.5 146.5C344.5 146.5 307 191.5 264 263C214.056 346.046 177.5 450.512 177.5 548C226.763 380.167 240.356 337.716 314.5 226.5Z" fill="#FFFEFC"/>
<path d="M353.39 267.736C353.495 286.289 349.459 304.632 341.578 321.429C333.595 338.407 322.008 353.441 307.623 365.484C305.347 367.445 307.135 371.21 310.062 370.108C337.457 359.845 374.445 329.116 358.837 267.111C358.187 263.579 353.39 264.519 353.39 267.736ZM371.844 267.736C381.755 283.289 388.083 300.852 390.368 319.153C392.629 337.377 390.775 355.856 384.932 373.324C383.956 376.067 387.452 378.42 389.403 376.149C407.206 354.2 422.733 310.612 376.234 263.579C373.876 261.547 370.218 264.677 371.844 267.421V267.736ZM394.28 266.404C409.756 276.932 422.788 290.664 432.493 306.669C442.068 322.479 448.034 340.208 449.965 358.59C449.884 359.25 450.067 359.911 450.479 360.444C450.905 360.977 451.514 361.333 452.188 361.442C452.862 361.552 453.553 361.408 454.127 361.038C454.694 360.675 455.097 360.104 455.249 359.448C462.728 332.093 458.501 285.452 396.963 261.227C393.711 259.977 391.598 264.209 394.28 266.089V266.404ZM244.215 347.925C262.646 342.64 279.787 333.608 294.565 321.393C309.14 309.35 320.99 294.347 329.328 277.379C330.791 274.554 335.425 275.651 334.693 278.786C320.63 341.498 273.562 354.591 244.297 352.864C241.207 352.945 241.289 348.789 244.215 347.925Z" fill="#CCBEA7"/>
<path d="M453.156 631.155C449.503 645.58 441.191 658.505 429.419 668.077C420.468 676.389 409.053 681.561 396.902 682.811C384.385 681.765 372.573 676.581 363.328 668.077C351.678 658.464 343.483 645.539 339.916 631.155C339.799 630.3 339.886 629.43 340.17 628.615C340.457 627.793 340.93 627.049 341.552 626.44C342.194 625.827 342.962 625.363 343.804 625.08C344.645 624.797 345.538 624.703 346.42 624.804H446.734C447.61 624.715 448.495 624.819 449.326 625.109C450.157 625.398 450.915 625.867 451.546 626.481C452.163 627.078 452.631 627.813 452.911 628.625C453.191 629.437 453.275 630.304 453.156 631.155Z" fill="#B71422"/>
<path d="M363.329 668.702C372.552 677.213 384.323 682.448 396.821 683.599C409.29 682.431 421.03 677.197 430.232 668.702C433.131 666.098 435.848 663.297 438.361 660.319C433.309 654.808 427.195 650.377 420.385 647.292C413.506 644.172 406.078 642.445 398.528 642.211C390.455 642.387 382.537 644.462 375.416 648.267C368.386 652.019 362.37 657.418 357.882 664.002C359.752 665.643 361.378 667.213 363.329 668.702Z" fill="#FF6164"/>
<path d="M364.629 662.509C368.701 657.452 373.858 653.377 379.719 650.584C385.646 647.754 392.122 646.259 398.691 646.205C410.781 646.517 422.342 651.228 431.207 659.455C433.077 657.494 434.865 655.457 436.573 653.419C426.233 643.918 412.561 638.517 398.284 638.289C390.673 638.348 383.163 640.037 376.259 643.242C369.43 646.406 363.379 651.03 358.532 656.788C360.453 658.8 362.49 660.71 364.629 662.509Z" fill="black"/>
<path d="M396.577 687.516C383.122 686.411 370.407 680.9 360.402 671.837C347.817 661.574 338.961 647.703 335.12 632.253C334.846 630.881 334.892 629.458 335.257 628.102C335.627 626.738 336.303 625.477 337.234 624.413C338.36 623.108 339.767 622.075 341.349 621.39C342.947 620.694 344.678 620.361 346.42 620.415H446.734C448.477 620.379 450.204 620.72 451.795 621.411C453.374 622.095 454.783 623.121 455.92 624.413C456.845 625.49 457.51 626.75 457.861 628.112C458.217 629.469 458.247 630.881 457.952 632.253C454.111 647.709 445.251 661.574 432.671 671.837C422.687 680.884 410.003 686.394 396.577 687.516ZM346.42 629.509C345.119 629.509 344.794 630.058 344.713 630.215C348.147 643.619 355.921 655.614 366.905 664.47C375.041 672.148 385.458 676.964 396.577 678.188C407.669 676.976 418.075 672.219 426.249 664.622C437.198 655.756 444.941 643.761 448.36 630.373C448.18 630.12 447.934 629.921 447.649 629.799C447.361 629.675 447.045 629.629 446.734 629.667L346.42 629.509Z" fill="black"/>
<path d="M519.572 636.018C545.839 636.018 567.128 623.941 567.128 609.049C567.128 594.157 545.839 582.085 519.572 582.085C493.304 582.085 472.016 594.157 472.016 609.049C472.016 623.941 493.304 636.018 519.572 636.018ZM273.501 636.018C299.768 636.018 321.057 623.941 321.057 609.049C321.057 594.157 299.768 582.085 273.501 582.085C247.233 582.085 225.945 594.157 225.945 609.049C225.945 623.941 247.233 636.018 273.501 636.018Z" fill="#FEBBD0"/>
<path d="M295.856 598.232C304.681 598.258 313.327 595.745 320.762 590.992C328.078 586.326 333.835 579.582 337.295 571.624C340.694 563.765 341.595 555.051 339.876 546.662C338.125 538.218 333.86 530.501 327.641 524.526C321.305 518.44 313.337 514.327 304.707 512.687C296.02 511.012 287.036 511.858 278.815 515.126C270.692 518.338 263.695 523.871 258.695 531.034C253.79 538.079 251.156 546.456 251.145 555.041C251.145 566.482 255.855 577.457 264.239 585.55C272.622 593.649 283.993 598.212 295.856 598.232ZM497.217 598.232C506.052 598.304 514.722 595.829 522.188 591.104C529.536 586.466 535.33 579.74 538.828 571.787C542.265 563.932 543.202 555.21 541.511 546.805C539.785 538.346 535.537 530.608 529.327 524.612C523.003 518.502 515.038 514.364 506.403 512.703C497.708 511.009 488.71 511.843 480.475 515.106C472.34 518.311 465.33 523.842 460.32 531.009C455.403 538.059 452.761 546.445 452.75 555.041C452.729 566.447 457.394 577.396 465.731 585.495C474.064 593.588 485.389 598.171 497.217 598.232Z" fill="black"/>
<path d="M282.036 557.784C285.354 557.803 288.606 556.866 291.405 555.086C294.185 553.308 296.354 550.783 297.639 547.821C298.925 544.868 299.271 541.592 298.63 538.436C297.978 535.262 296.38 532.359 294.047 530.109C291.669 527.818 288.675 526.268 285.43 525.648C282.165 525.015 278.787 525.331 275.696 526.558C272.642 527.763 270.011 529.841 268.13 532.533C266.285 535.18 265.294 538.329 265.29 541.556C265.29 545.844 267.053 549.96 270.188 553.003C273.375 556.062 277.619 557.778 282.036 557.784ZM483.397 557.784C486.714 557.803 489.967 556.866 492.766 555.086C495.545 553.308 497.714 550.783 499 547.821C500.285 544.868 500.631 541.592 499.991 538.436C499.339 535.262 497.741 532.359 495.408 530.109C493.029 527.818 490.035 526.268 486.791 525.648C483.526 525.015 480.147 525.331 477.056 526.558C474.002 527.763 471.371 529.841 469.491 532.533C467.646 535.18 466.655 538.329 466.651 541.556C466.651 545.824 468.388 549.909 471.493 552.947C474.592 555.985 478.809 557.723 483.234 557.784H483.397Z" fill="white"/>
<path d="M619 697.5C658.573 623.497 647.773 567.226 643.5 552.5C618.415 616.501 634 631 577 705C484.918 805.592 344.617 813.899 250 757C309 805 355 830.529 441.206 818.191C524.279 806.302 579.427 771.503 619 697.5Z" fill="#F6DECE"/>
</svg>
